<svg width="24" height="24" viewBox="0 0 24 24" fill="none" xmlns="http://www.w3.org/2000/svg">
<path fill-rule="evenodd" clip-rule="evenodd" d="M6.06563 5.43883C6.24326 5.04803 6.79836 5.04803 6.976 5.43883L7.20359 5.93953L10.5369 13.2729L11.9967 16.4844C12.111 16.7357 11.9998 17.0322 11.7484 17.1464L11.2932 17.3533C11.0418 17.4676 10.7454 17.3564 10.6311 17.1051L9.50444 14.6263C9.4233 14.4478 9.24533 14.3332 9.04925 14.3332H3.99237C3.7963 14.3332 3.61832 14.4478 3.53719 14.6263L2.41049 17.1051C2.29622 17.3564 1.99979 17.4676 1.7484 17.3533L1.29322 17.1464C1.04183 17.0322 0.930671 16.7357 1.04494 16.4844L2.5047 13.2729L5.83804 5.93953L6.06563 5.43883ZM4.67355 12.1263C4.52307 12.4574 4.76509 12.8332 5.12874 12.8332H7.91289C8.27654 12.8332 8.51855 12.4574 8.36807 12.1263L6.976 9.06375C6.79836 8.67295 6.24327 8.67295 6.06563 9.06375L4.67355 12.1263ZM22.2708 17.25C21.9946 17.25 21.7708 17.0261 21.7708 16.75V5.75C21.7708 5.47386 21.9946 5.25 22.2708 5.25H22.7708C23.0469 5.25 23.2708 5.47386 23.2708 5.75V16.75C23.2708 17.0261 23.0469 17.25 22.7708 17.25H22.2708ZM13.521 5H13.271C12.9949 5 12.771 5.22385 12.771 5.49999L12.771 5.74998L12.7708 16.75C12.7708 17.0261 12.9946 17.25 13.2708 17.25L13.7708 17.25C14.0469 17.25 14.2708 17.0262 14.2708 16.75L14.2708 14.928C14.2708 14.6518 14.4947 14.428 14.7708 14.428H17.5208C19.0396 14.428 20.2708 13.1968 20.2708 11.6781L20.271 7.75008C20.271 6.23127 19.0398 5 17.521 5H13.521ZM17.5208 12.928H14.7709C14.4947 12.928 14.2709 12.7041 14.2709 12.428L14.271 6.99999C14.271 6.72385 14.4949 6.5 14.771 6.5H17.521C18.2113 6.5 18.771 7.05967 18.771 7.75004L18.7708 11.678C18.7708 12.3684 18.2112 12.928 17.5208 12.928Z" fill="black"/>
</svg>
