<svg fill="none" height="24" viewBox="0 0 24 24" width="24" xmlns="http://www.w3.org/2000/svg" xmlns:xlink="http://www.w3.org/1999/xlink"><clipPath id="a"><path d="m0 0h24v24h-24z"/></clipPath><g clip-path="url(#a)"><path clip-rule="evenodd" d="m13.2528 2.14703c-1.5532-.64335-3.26222-.81167-4.91106-.4837s-3.1634 1.13752-4.35214 2.32627c-1.18875 1.18874-1.9983 2.7033-2.32627 4.35214-.32797 1.64883-.15965 3.35786.4837 4.91106.64334 1.5532 1.73281 2.8807 3.13063 3.8147 1.39781.934 3.0412 1.4325 4.72234 1.4325.4142 0 .75.3358.75.75s-.3358.75-.75.75c-1.97781 0-3.91121-.5865-5.5557-1.6853s-2.92621-2.6606-3.683091-4.4879c-.75687633-1.8272-.95491-3.83789-.569057-5.7777.385852-1.93981 1.338258-3.72164 2.736788-5.12016 1.39852-1.39853 3.18035-2.350937 5.12016-2.736789s3.9505-.1878179 5.7777.569059c1.8273.75688 3.3891 2.0386 4.4879 3.68309 1.0988 1.6445 1.6853 3.57789 1.6853 5.5557 0 .4142-.3358.75-.75.75s-.75-.3358-.75-.75c0-1.68114-.4985-3.32452-1.4325-4.72234s-2.2615-2.48729-3.8147-3.13063zm-1.5307 3.69552c-.8223-.3406-1.72709-.42971-2.6-.25608-.87292.17363-1.67474.60222-2.30408 1.23155-.62933.62934-1.05792 1.43116-1.23155 2.30408-.17363.87291-.08452 1.7777.25608 2.6.34059.8222.91737 1.5251 1.65739 2.0195.74002.4945 1.61005.7584 2.50006.7584.4142 0 .75.3358.75.75s-.3358.75-.75.75c-1.18668 0-2.34672-.3519-3.33342-1.0112-.98669-.6593-1.75573-1.5963-2.20985-2.6927-.45413-1.0964-.57295-2.30275-.34144-3.46664.23151-1.16388.80296-2.23298 1.64207-3.0721.83912-.83911 1.90822-1.41056 3.0721-1.64207 1.16389-.23151 2.37024-.11269 3.46664.34144 1.0964.45412 2.0334 1.22316 2.6927 2.20985.6593.9867 1.0112 2.14674 1.0112 3.33342 0 .4142-.3358.75-.75.75s-.75-.3358-.75-.75c0-.89001-.2639-1.76004-.7584-2.50006-.4944-.74002-1.1973-1.3168-2.0195-1.65739zm-.4588 4.45525c-.2753-.1033-.5857-.0361-.7936.1719-.208.2079-.2752.5183-.1719.7936l4.5 12c.1075.2869.3787.4794.6849.4865s.586-.1728.7067-.4544l2.053-4.7904c.0506-.118.1446-.212.2626-.2626l4.7904-2.053c.2816-.1207.4615-.4005.4544-.7067s-.1996-.5774-.4865-.6849zm4.7736 9.5454c-.1775.4143-.7695.4007-.9277-.0214l-2.4414-6.5102c-.1507-.402.2418-.7945.6438-.6438l6.5102 2.4414c.4221.1582.4357.7502.0214.9277l-2.3886 1.0237c-.177.0759-.3181.217-.394.394z" fill="#000" fill-rule="evenodd"/></g></svg>