<svg width="24" height="24" viewBox="0 0 24 24" fill="none" xmlns="http://www.w3.org/2000/svg">
<path d="M16.7764 1.88834C16.5294 1.76485 16.2291 1.86496 16.1056 2.11195L6.55282 21.2175C6.42933 21.4645 6.52944 21.7649 6.77643 21.8883L7.22364 22.112C7.47063 22.2354 7.77097 22.1353 7.89446 21.8883L17.4473 2.78277C17.5707 2.53578 17.4706 2.23545 17.2236 2.11195L16.7764 1.88834Z" fill="black"/>
<path d="M0.292931 12.3537C0.0976689 12.1584 0.0976688 11.8419 0.292931 11.6466L5.11615 6.82337C5.31142 6.62811 5.628 6.62811 5.82326 6.82337L6.17681 7.17692C6.37208 7.37219 6.37208 7.68877 6.17681 7.88403L2.41425 11.6466C2.21899 11.8419 2.21899 12.1584 2.41425 12.3537L6.17681 16.1163C6.37208 16.3115 6.37208 16.6281 6.17681 16.8234L5.82326 17.1769C5.628 17.3722 5.31142 17.3722 5.11615 17.1769L0.292931 12.3537Z" fill="black"/>
<path d="M23.7071 12.3537C23.9024 12.1584 23.9024 11.8419 23.7071 11.6466L18.8839 6.82337C18.6887 6.62811 18.3721 6.62811 18.1768 6.82337L17.8233 7.17692C17.628 7.37219 17.628 7.68877 17.8233 7.88403L21.5858 11.6466C21.7811 11.8419 21.7811 12.1584 21.5858 12.3537L17.8233 16.1163C17.628 16.3115 17.628 16.6281 17.8233 16.8234L18.1768 17.1769C18.3721 17.3722 18.6887 17.3722 18.8839 17.1769L23.7071 12.3537Z" fill="black"/>
</svg>
