<svg fill="none" height="24" viewBox="0 0 24 24" width="24" xmlns="http://www.w3.org/2000/svg"><path clip-rule="evenodd" d="m5.60581.505369c.20018-.256616.58828-.256616.78846 0l1.77443 2.274641c.05779.07408.13527.13037.22358.16244l2.71162.98468c.3059.11108.4259.48019.2437.74987l-1.61502 2.39049c-.05259.07785-.08219.16893-.08539.26283l-.09854 2.88318c-.01112.3253-.3251.5534-.63789.4635l-2.77254-.79727c-.09029-.02596-.18607-.02596-.27636 0l-2.77254.79727c-.31279.0899-.62677-.1382-.63788-.4635l-.09855-2.88318c-.0032-.0939-.0328-.18498-.08539-.26283l-1.614989-2.39049c-.182196-.26968-.062266-.63879.24365-.74987l2.711639-.98468c.08831-.03207.16579-.08836.22358-.16244zm2.13934 3.797921 1.03941.37744c.30591.11109.42584.4802.24365.74988l-.61905.9163c-.15777.23354-.24656.5068-.25619.78848l-.03777 1.10517c-.01112.32527-.3251.55339-.63788.46345l-1.06275-.3056c-.27087-.07788-.55819-.07788-.82906 0l-1.06275.3056c-.31278.08994-.62676-.13818-.63788-.46345l-.03777-1.10517c-.00963-.28168-.09842-.55494-.25619-.78848l-.61905-.9163c-.18219-.26968-.06226-.63879.24365-.74988l1.03941-.37744c.26491-.09619.49736-.26508.67072-.4873l.68016-.8719c.20018-.25662.58828-.25662.78846 0l.68016.8719c.17336.22222.40581.39111.67072.4873zm6.75485-.30329c0-.27614.2239-.5.5-.5h5c.2762 0 .5.22386.5.5v5c0 .27614-.2238.5-.5.5h-5c-.2761 0-.5-.22386-.5-.5zm-1 7c-.2761 0-.5-.2239-.5-.5v-8c0-.27614.2239-.5.5-.5h8c.2762 0 .5.22386.5.5v8c0 .2761-.2238.5-.5.5zm7 4c0-.2761-.2238-.5-.5-.5h-5c-.2761 0-.5.2239-.5.5v5c0 .2761.2239.5.5.5h5c.2762 0 .5-.2239.5-.5zm-7-2c-.2761 0-.5.2239-.5.5v8c0 .2761.2239.5.5.5h8c.2762 0 .5-.2239.5-.5v-8c0-.2761-.2238-.5-.5-.5zm-9.99996 2c0-.2761.22386-.5.5-.5h5c.27614 0 .5.2239.5.5v5c0 .2761-.22386.5-.5.5h-5c-.27614 0-.5-.2239-.5-.5zm-1 7c-.27614 0-.5-.2239-.5-.5v-8c0-.2761.22386-.5.5-.5h7.99996c.2762 0 .5.2239.5.5v8c0 .2761-.2238.5-.5.5z" fill="#000" fill-rule="evenodd"/></svg>