<svg fill="none" height="24" viewBox="0 0 24 24" width="24" xmlns="http://www.w3.org/2000/svg" xmlns:xlink="http://www.w3.org/1999/xlink"><clipPath id="a"><path d="m0 0h24v24h-24z"/></clipPath><g clip-path="url(#a)"><path clip-rule="evenodd" d="m9.22501.25h-.25c-.27614 0-.5.223858-.5.5v.25 1.88287c0 .17933-.09603.34492-.25169.43398l-1.9213 1.09931c-.15384.08802-.34278.08802-.49662 0l-1.65811-.94872-.21531-.12319c-.23836-.13638-.5421-.055-.68034.18229l-.12487.21433-2.774901 4.76314-.126832.21771c-.139774.23993-.057287.54778.18372.68568l.218691.12513 1.649652.94387c.15565.0891.25169.2547.25169.434v2.1792c0 .1793-.09604.3449-.25169.434l-1.649652.9438-.218692.1252c-.241006.1379-.3234932.4457-.183719.6856l.126832.2178 2.774901 4.7631.12487.2143c.13824.2373.44198.3187.68034.1823l.21531-.1232 1.65807-.9487c.15384-.088.34279-.088.49663 0l1.92133 1.0994c.15566.089.25169.2546.25169.4339v1.8829.25c0 .2761.22386.5.5.5h.25 5.54979.25c.2762 0 .5-.2239.5-.5v-.25-1.8829c0-.1793.0961-.3449.2517-.4339l1.9213-1.0994c.1539-.088.3428-.088.4967 0l1.658.9487.2154.1232c.2383.1364.5421.055.6803-.1823l.1249-.2143 2.7749-4.7632.1268-.2177c.1398-.2399.0573-.5477-.1837-.6856l-.2187-.1252-1.6497-.9438c-.1556-.0891-.2517-.2547-.2517-.434v-2.1792c0-.1793.0961-.3449.2517-.434l1.6497-.94387.2187-.12513c.241-.1379.3235-.44576.1837-.68568l-.1268-.21771-2.7749-4.76314-.1249-.21433c-.1382-.23729-.442-.31868-.6804-.18229l-.2153.12319-1.6581.94872c-.1538.08802-.3428.08802-.4966 0l-1.9213-1.09931c-.1556-.08906-.2517-.25465-.2517-.43398v-1.88287-.25c0-.276142-.2238-.5-.5-.5h-.25zm.75 3.3578v-1.3578c0-.27614.22389-.5.49999-.5h3.0498c.2762 0 .5.22386.5.5v1.3578.14499c0 .17933.0961.34493.2517.43398l.1259.07201 3.1713 1.81452.1241.07104c.1538.08802.3428.08802.4966 0l.1242-.07104 1.2024-.68796c.2383-.13639.5421-.055.6803.18229l1.5164 2.60292c.1398.23992.0573.54777-.1837.68567l-1.1854.67826-.1259.072c-.1556.08906-.2517.25466-.2517.43402v.145 3.629.145c0 .1793.0961.3449.2517.434l.1259.072 1.1854.6782c.241.1379.3235.4458.1837.6857l-1.5164 2.6029c-.1382.2373-.442.3187-.6803.1823l-1.2024-.6879-.1241-.0711c-.1539-.088-.3428-.088-.4967 0l-.1241.0711-3.1713 1.8145-.1259.072c-.1556.0891-.2517.2547-.2517.434v.145 1.3578c0 .2761-.2238.5-.5.5h-3.0498c-.2761 0-.49999-.2239-.49999-.5v-1.3578-.145c0-.1793-.09604-.3449-.25169-.434l-.12584-.072-3.17134-1.8145-.12415-.0711c-.15384-.088-.34279-.088-.49663 0l-.12415.0711-1.20234.6879c-.23836.1364-.5421.055-.68034-.1823l-1.5164-2.6029c-.13978-.2399-.05729-.5478.18372-.6857l1.18541-.6782.12584-.072c.15565-.0891.25169-.2547.25169-.434v-.145-3.629-.145c0-.17936-.09604-.34496-.25169-.43402l-.12584-.072-1.18542-.67826c-.241-.13789-.32349-.44575-.18372-.68567l1.51641-2.60292c.13824-.23729.44198-.31867.68034-.18229l1.20237.68796.12416.07104c.15384.08802.34278.08802.49662 0l.12416-.07104 3.1713-1.81452.12584-.07201c.15566-.08905.25169-.25465.25169-.43398zm3.02739 11.4837c-.82.2659-1.7119.1952-2.4797-.1966-.76776-.3918-1.34845-1.0725-1.61432-1.8925-.26587-.8199-.19513-1.7118.19665-2.4796.39178-.76778 1.07247-1.34847 1.89247-1.61434.8199-.26586 1.7119-.19512 2.4796.19665.7678.39178 1.3485 1.07249 1.6144 1.89249.2658.8199.1951 1.7118-.1967 2.4796s-1.0725 1.3485-1.8924 1.6143zm-5.23347-5.2505c-.5726 1.1221-.67599 2.4258-.28741 3.6241.38857 1.1984 1.23727 2.1933 2.3594 2.7659 1.12208.5726 2.42578.676 3.62408.2874 1.1984-.3886 2.1933-1.2373 2.7659-2.3594s.676-2.4258.2874-3.6241c-.3886-1.19837-1.2373-2.19329-2.3594-2.76589s-2.4257-.67598-3.6241-.28741c-1.19836.38857-2.19327 1.23728-2.76587 2.3594z" fill="#000" fill-rule="evenodd"/></g></svg>