<svg width="24" height="24" viewBox="0 0 24 24" fill="none" xmlns="http://www.w3.org/2000/svg">
<path d="M5.97559 7.25488C6.6186 7.30246 7.18797 7.70169 7.44922 8.29883L8.65941 11.0654C8.66966 11.0888 8.68169 11.1114 8.69539 11.133L8.71387 11.1621C8.7606 11.2169 8.82989 11.25 8.9043 11.25H15.0957C15.1949 11.25 15.2853 11.1914 15.3252 11.1006L16.5508 8.29883L16.6074 8.18164C16.9088 7.61174 17.5026 7.25 18.1543 7.25H21L21.1787 7.25879C22.0613 7.3483 22.75 8.09383 22.75 9V21C22.75 21.9665 21.9665 22.75 21 22.75H3C2.0335 22.75 1.25 21.9665 1.25 21V9C1.25 8.0335 2.0335 7.25 3 7.25H5.8457L5.97559 7.25488ZM3 8.75C2.86193 8.75 2.75 8.86193 2.75 9V21C2.75 21.1381 2.86193 21.25 3 21.25H21C21.1381 21.25 21.25 21.1381 21.25 21V9C21.25 8.87931 21.1645 8.77833 21.0508 8.75488L21 8.75H18.1543C18.0799 8.75 18.0106 8.78308 17.9639 8.83789L17.9454 8.86699C17.9317 8.88857 17.9197 8.91118 17.9094 8.93461L16.6992 11.7012C16.4205 12.3382 15.791 12.75 15.0957 12.75H8.9043C8.25259 12.75 7.65878 12.3883 7.35742 11.8184L7.30078 11.7012L6.0752 8.89941C6.05032 8.84272 6.00576 8.79875 5.95175 8.77361C5.92991 8.76345 5.90601 8.75896 5.88218 8.75542C5.8579 8.75181 5.83338 8.75 5.80882 8.75H3ZM16.0771 16.2539C16.4551 16.2925 16.75 16.6118 16.75 17C16.75 17.3882 16.4551 17.7075 16.0771 17.7461L16 17.75H8C7.58579 17.75 7.25 17.4142 7.25 17C7.25 16.5858 7.58579 16.25 8 16.25H16L16.0771 16.2539ZM12 1.25C12.045 1.25 12.089 1.25413 12.1318 1.26172C12.1374 1.2627 12.1429 1.26354 12.1484 1.26465C12.1618 1.26733 12.1744 1.27298 12.1875 1.27637C12.2207 1.28495 12.2541 1.29344 12.2861 1.30664C12.3153 1.31868 12.342 1.33512 12.3691 1.35059C12.4263 1.3831 12.4816 1.421 12.5303 1.46973L15.5303 4.46973L15.582 4.52637C15.8223 4.82095 15.8049 5.25567 15.5303 5.53027C15.2557 5.80488 14.8209 5.82234 14.5264 5.58203L14.4697 5.53027L13.6036 4.6641C13.2886 4.34912 12.75 4.5722 12.75 5.01765V9C12.75 9.41421 12.4142 9.75 12 9.75C11.5858 9.75 11.25 9.41421 11.25 9V5.01765C11.25 4.5722 10.7114 4.34912 10.3964 4.6641L9.53027 5.53027L9.47363 5.58203C9.17905 5.82234 8.74433 5.80488 8.46973 5.53027C8.19512 5.25567 8.17766 4.82095 8.41797 4.52637L8.46973 4.46973L11.4697 1.46973C11.5182 1.42121 11.573 1.38303 11.6299 1.35059C11.6555 1.33596 11.6806 1.32018 11.708 1.30859L11.7178 1.30469C11.7482 1.29234 11.78 1.28455 11.8115 1.27637C11.8246 1.27296 11.8372 1.26735 11.8506 1.26465C11.8561 1.26353 11.8617 1.26271 11.8672 1.26172C11.9103 1.25402 11.9547 1.25 12 1.25Z" fill="black"/>
</svg>
