<svg fill="none" height="24" viewBox="0 0 24 24" width="24" xmlns="http://www.w3.org/2000/svg"><path clip-rule="evenodd" d="m14.6554 11.4664c1.1451 0 2.0928-.9288 2.0928-2.09485v-5.27669c0-1.16601-.9477-2.09486-2.0928-2.09486s-2.0928.92885-2.0928 2.09486v5.27669c0 1.14625.9477 2.09485 2.0928 2.09485zm-5.29117-5.2567c-1.16485 0-2.09279-.94861-2.09279-2.09486s.94768-2.09486 2.09279-2.09486c1.14507 0 2.09277.94861 2.09277 2.09486v2.09486zm-5.23194 10.5336c1.14511 0 2.09279-.9289 2.09279-2.0949h-.01974v-2.0949h-2.09279c-1.14512 0-2.0928.9487-2.0928 2.0949s.96743 2.0949 2.11254 2.0949zm5.23194-4.1898c-1.14511 0-2.09279.9289-2.09279 2.0949v5.2569c0 1.166.94768 2.0949 2.09279 2.0949 1.14507 0 2.09277-.9289 2.09277-2.0949v-5.2569c0-1.1462-.9477-2.0949-2.09277-2.0949zm2.09287-3.18209c0-1.14625-.928-2.09487-2.09284-2.09487h-5.27147c-1.14511 0-2.09279.94862-2.09279 2.09487 0 1.14629.92794 2.09489 2.09279 2.09489h5.27147c1.14514 0 2.09284-.9486 2.09284-2.09489zm6.3178 0c0-1.16601.9477-2.09487 2.0928-2.09487s2.0928.94862 2.0928 2.09487c0 1.14629-.9477 2.09489-2.0928 2.09489h-2.0928zm-3.1391 8.41919c1.1648 0 2.0928.9486 2.0928 2.0948 0 1.1463-.9477 2.0949-2.0928 2.0949s-2.0928-.9486-2.0928-2.0949v-2.0948zm-2.0928-3.1422c0 1.1462.9279 2.0949 2.0928 2.0949h5.2715c1.1451 0 2.0927-.9487 2.0927-2.0949s-.9279-2.0949-2.0927-2.0949h-5.2715c-1.1451 0-2.0928.9487-2.0928 2.0949z" fill="#000" fill-rule="evenodd"/></svg>