<svg fill="none" height="24" viewBox="0 0 24 24" width="24" xmlns="http://www.w3.org/2000/svg"><path clip-rule="evenodd" d="m19.287.307096c.2448.101412.418.324501.4555.586842l.3674 2.571952c.0314.21999.2043.39284.4242.42427l2.5719.36739c.2624.03747.4855.21061.5869.45545.1014.24483.0661.52501-.0929.73701l-3 4c-.1417.18885-.3639.3-.6.3l-4.6536.00004c-.1326 0-.2598.05268-.3536.14645l-4.1161 4.1161c-.2929.2929-.7678.2929-1.06067 0-.2929-.2929-.2929-.7677 0-1.0606l4.28747-4.28753c.0938-.09377.1465-.22095.1465-.35356v-4.3109c0-.23607.1111-.45836.3-.6l4-3.000004c.212-.159003.4922-.194322.737-.09291zm-1.7942 7.089384c-.3149.31498-.0919.85355.3536.85355l1.5286-.00002c.1574 0 .3056-.07409.4-.2l1.3583-1.8111c.228-.30402.0469-.74124-.3293-.79498l-.9413-.13446c-.1558-.02226-.313.03014-.4243.14142zm1.1549-3.55905c.0223.1558-.0301.31298-.1414.42427l-1.9028 1.90276c-.3149.31499-.8535.0919-.8535-.35355v-1.1859c0-.15738.0741-.30557.2-.4l1.8111-1.35835c.304-.22801.7412-.04692.795.32929zm-9.64945 17.59527c1.62265.2187 3.27235-.0996 4.69715-.9063 1.4248-.8068 2.5465-2.0577 3.1937-3.5617.6473-1.504.7846-3.1784.391-4.7678-.0996-.402.1456-.8087.5477-.9083.402-.0996.8087.1456.9083.5477.4723 1.9072.3076 3.9166-.4691 5.7214s-2.1227 3.3058-3.8325 4.2739-3.6894 1.3501-5.6366 1.0877c-1.94722-.2624-3.75507-1.1549-5.14753-2.5411s-2.29303-3.19-2.56422-5.1361c-.271189-1.946.10191-3.9273 1.06232-5.6414.96042-1.7141 2.45539-3.06682 4.25667-3.85163 1.80129-.78481 3.80996-.95859 5.71926-.49482.4025.09777.6495.50333.5517.90584-.0977.40251-.5033.64955-.9058.55178-1.5911-.38648-3.26494-.24166-4.76601.41235s-2.74688 1.78127-3.54723 3.20968c-.80034 1.4284-1.11126 3.0795-.88527 4.7012s.97647 3.1249 2.13685 4.28c1.16039 1.1552 2.66693 1.8989 4.28961 2.1176zm.51275-3.9671c.6987.0986 1.4109-.0163 2.0432-.3296.6322-.3134 1.155-.8105 1.4997-1.4262.3448-.6157.4953-1.3212.432-2.024-.0372-.4125.2671-.7771.6796-.8143.4126-.0372.7772.2671.8143.6797.0905 1.0039-.1246 2.0118-.6171 2.8914-.4924.8796-1.2392 1.5897-2.1425 2.0374-.9032.4476-1.9206.6117-2.91877.4709s-1.93045-.5801-2.67455-1.2602c-.7441-.68-1.26527-1.5691-1.49514-2.5506-.22986-.9815-.15769-2.0096.20705-2.9493.36474-.9398 1.00502-1.7473 1.83684-2.31673s1.81633-.87413 2.82437-.87413c.4142 0 .75.33579.75.75 0 .41426-.3358.74996-.75.74996-.70562 0-1.39478.2133-1.97705.6119-.58228.3986-1.03047.9639-1.28579 1.6217-.25532.6579-.30584 1.3775-.14494 2.0645.16091.6871.52573 1.3095 1.0466 1.7855s1.17347.7835 1.87218.8821z" fill="#000" fill-rule="evenodd"/></svg>