<svg width="24" height="24" viewBox="0 0 24 24" fill="none" xmlns="http://www.w3.org/2000/svg">
<path d="M14.9999 22.25C15.4141 22.25 15.7499 22.5858 15.7499 23C15.7499 23.4142 15.4141 23.75 14.9999 23.75H8.99989C8.58567 23.75 8.24989 23.4142 8.24989 23C8.24989 22.5858 8.58567 22.25 8.99989 22.25H14.9999ZM16.9999 19.25C17.4141 19.25 17.7499 19.5858 17.7499 20C17.7499 20.4142 17.4141 20.75 16.9999 20.75H6.99989C6.58567 20.75 6.24989 20.4142 6.24989 20C6.24989 19.5858 6.58567 19.25 6.99989 19.25H16.9999ZM11.8163 0.25192C13.7577 0.211253 15.6577 0.817764 17.2167 1.97555C18.7755 3.13325 19.9054 4.77629 20.4276 6.64645C20.9498 8.51663 20.835 10.5078 20.1014 12.3056C19.4578 13.8829 18.369 15.2323 16.9761 16.1954C16.8366 16.2919 16.7499 16.4491 16.7499 16.6188V17C16.7499 17.4142 16.4141 17.75 15.9999 17.75C15.5857 17.75 15.2499 17.4142 15.2499 17V15.9277C15.2501 15.6599 15.393 15.4122 15.6249 15.2783C17.0182 14.4738 18.1049 13.2289 18.7128 11.7392C19.3206 10.2497 19.4158 8.60023 18.9833 7.05075C18.5506 5.50104 17.6139 4.13896 16.3222 3.17965C15.0306 2.22052 13.4569 1.71833 11.8485 1.75192C10.24 1.78561 8.68775 2.35277 7.43739 3.3652C6.18698 4.37776 5.3087 5.77823 4.94129 7.34469C4.574 8.91096 4.73847 10.5548 5.40809 12.0175C6.03564 13.3882 7.07369 14.527 8.37489 15.2783C8.60681 15.4122 8.74972 15.6599 8.74989 15.9277V17C8.74989 17.4142 8.4141 17.75 7.99989 17.75C7.58567 17.75 7.24989 17.4142 7.24989 17V16.6188C7.24989 16.4491 7.16323 16.2919 7.02367 16.1954C5.73449 15.304 4.70176 14.0796 4.04383 12.6425C3.23547 10.8769 3.0379 8.89248 3.48133 7.00192C3.92474 5.11149 4.9841 3.42219 6.49305 2.20016C8.00207 0.978182 9.87498 0.292663 11.8163 0.25192ZM13.6463 8.58587C13.8416 8.78113 14.1582 8.78113 14.3534 8.58587L15.1161 7.82325C15.3113 7.62798 15.6279 7.62798 15.8232 7.82325L16.1766 8.17669C16.3719 8.37195 16.3719 8.68853 16.1766 8.88379L14.3534 10.707C14.1582 10.9022 13.8416 10.9022 13.6463 10.707L12.3534 9.41407C12.1582 9.2188 11.8416 9.2188 11.6463 9.41407L10.3534 10.707C10.1582 10.9022 9.84159 10.9022 9.64633 10.707L7.82317 8.88379C7.6279 8.68853 7.6279 8.37195 7.82317 8.17669L8.17661 7.82325C8.37187 7.62798 8.68845 7.62798 8.88371 7.82325L9.64633 8.58587C9.84159 8.78113 10.1582 8.78113 10.3534 8.58587L11.6463 7.29297C11.8416 7.09771 12.1582 7.09771 12.3534 7.29297L13.6463 8.58587Z" fill="black"/>
</svg>
